<?xml version="1.0" encoding="UTF-8" standalone="no"?>
<!-- Created with Inkscape (http://www.inkscape.org/) -->

<svg
   xmlns:dc="http://purl.org/dc/elements/1.1/"
   xmlns:cc="http://creativecommons.org/ns#"
   xmlns:rdf="http://www.w3.org/1999/02/22-rdf-syntax-ns#"
   xmlns:svg="http://www.w3.org/2000/svg"
   xmlns="http://www.w3.org/2000/svg"
   xmlns:xlink="http://www.w3.org/1999/xlink"
   version="1.1"
   width="128"
   height="128"
   id="svg3918">
  <defs
     id="defs3920">
    <clipPath
       id="clipPath5536">
      <path
         d="m 120.19935,864.8559 c -25.096213,-38.26411 -11.7232,-89.62529 28.85518,-110.82274 24.1328,-12.60658 54.48983,-11.02738 77.94337,4.05467 5.90292,3.79594 14.46846,11.7375 18.4322,17.08946 15.24007,20.57761 19.7772,46.17208 12.40014,69.9506 -9.01121,29.04592 -34.14583,50.13705 -63.70338,53.45521 -29.71878,3.33627 -58.11567,-9.61896 -73.92751,-33.7272 z m 56.06095,-21.09545 c 3.74373,1.91168 12.13539,1.71852 16.75547,-0.38569 5.75674,-2.6219 11.0409,-8.16794 12.99352,-13.63746 1.75814,-4.92483 1.66051,-9.77484 -0.31197,-15.4963 -1.98071,-5.74532 -7.14234,-10.99636 -12.88882,-13.11203 -5.49684,-2.02376 -10.53148,-2.08126 -15.89994,-0.18157 -3.97104,1.4052 -5.10285,2.13711 -8.38673,5.42351 -7.40311,7.40856 -9.25035,16.33694 -5.21665,25.21248 1.28717,2.83223 9.17611,10.24737 12.95512,12.17706 z"
         id="path5538"
         style="fill:#ffff00;fill-opacity:1;fill-rule:nonzero;stroke:#ff0000;stroke-width:6.67643023;stroke-linecap:round;stroke-linejoin:round;stroke-miterlimit:4;stroke-opacity:1;stroke-dasharray:none;stroke-dashoffset:0" />
    </clipPath>
  </defs>
  <metadata
     id="metadata3923">
    <rdf:RDF>
      <cc:Work
         rdf:about="">
        <dc:format>image/svg+xml</dc:format>
        <dc:type
           rdf:resource="http://purl.org/dc/dcmitype/StillImage" />
        <dc:title></dc:title>
      </cc:Work>
    </rdf:RDF>
  </metadata>
  <g
     transform="translate(0,-924.36218)"
     id="layer1">
    <g
       transform="matrix(0.51392514,-0.51392514,0.51392514,0.51392514,-451.86388,659.36686)"
       clip-path="url(#clipPath5536)"
       id="g4515"
       style="stroke-width:9.83991051;stroke-miterlimit:4;stroke-dasharray:none">
      <text
         x="134.04985"
         y="794.39807"
         id="text4484"
         xml:space="preserve"
         style="font-size:40.77328491px;font-style:normal;font-variant:normal;font-weight:normal;font-stretch:normal;line-height:125%;letter-spacing:0px;word-spacing:0px;fill:#ff00ff;fill-opacity:1;stroke:#ff0000;stroke-width:2.65852761;stroke-miterlimit:4;stroke-opacity:1;stroke-dasharray:none;font-family:Rubik Mono One;-inkscape-font-specification:Rubik Mono One"><tspan
           x="134.04985"
           y="794.39807"
           id="tspan4486"
           style="stroke-width:2.65852761">M</tspan></text>
      <text
         x="-237.33253"
         y="-852.96173"
         transform="scale(-1,-1)"
         id="text4484-5"
         xml:space="preserve"
         style="font-size:38.957798px;font-style:normal;font-variant:normal;font-weight:normal;font-stretch:normal;line-height:125%;letter-spacing:0px;word-spacing:0px;fill:#ff00ff;fill-opacity:1;stroke:#ff0000;stroke-width:2.54015326;stroke-miterlimit:4;stroke-opacity:1;stroke-dasharray:none;font-family:Rubik Mono One;-inkscape-font-specification:Rubik Mono One"><tspan
           x="-237.33253"
           y="-852.96173"
           id="tspan4486-5"
           style="stroke-width:2.54015326">M</tspan></text>
      <use
         transform="translate(22.841598,-0.99594663)"
         id="use5119"
         x="0"
         y="0"
         width="744.09448"
         height="1052.3622"
         xlink:href="#text4484" />
      <use
         transform="translate(0.27947749,-0.50009758)"
         id="use5121"
         x="0"
         y="0"
         width="744.09448"
         height="1052.3622"
         xlink:href="#text4484" />
      <use
         transform="translate(14.253793,6.289311)"
         id="use5123"
         x="0"
         y="0"
         width="744.09448"
         height="1052.3622"
         xlink:href="#text4484" />
      <use
         transform="translate(31.816402,-22.585084)"
         id="use5125"
         x="0"
         y="0"
         width="744.09448"
         height="1052.3622"
         xlink:href="#text4484" />
      <use
         transform="translate(36.139732,-31.727622)"
         id="use5127"
         x="0"
         y="0"
         width="744.09448"
         height="1052.3622"
         xlink:href="#text4484" />
      <use
         transform="translate(76.387613,-10.38286)"
         id="use5129"
         x="0"
         y="0"
         width="744.09448"
         height="1052.3622"
         xlink:href="#text4484" />
      <use
         transform="translate(85.153357,-34.536098)"
         id="use5131"
         x="0"
         y="0"
         width="744.09448"
         height="1052.3622"
         xlink:href="#text4484" />
      <use
         transform="translate(68.726465,-38.05945)"
         id="use5133"
         x="0"
         y="0"
         width="744.09448"
         height="1052.3622"
         xlink:href="#text4484" />
      <use
         transform="translate(72.362309,-7.2127834)"
         id="use5135"
         x="0"
         y="0"
         width="744.09448"
         height="1052.3622"
         xlink:href="#text4484" />
      <use
         transform="translate(59.132635,-19.38578)"
         id="use5137"
         x="0"
         y="0"
         width="744.09448"
         height="1052.3622"
         xlink:href="#text4484" />
      <use
         transform="translate(90.127518,-12.441322)"
         id="use5139"
         x="0"
         y="0"
         width="744.09448"
         height="1052.3622"
         xlink:href="#text4484" />
      <use
         transform="translate(94.843406,-23.556306)"
         id="use5141"
         x="0"
         y="0"
         width="744.09448"
         height="1052.3622"
         xlink:href="#text4484" />
      <use
         transform="translate(62.595457,-8.9679562)"
         id="use5143"
         x="0"
         y="0"
         width="744.09448"
         height="1052.3622"
         xlink:href="#text4484" />
      <use
         transform="translate(73.888064,-20.18603)"
         id="use5145"
         x="0"
         y="0"
         width="744.09448"
         height="1052.3622"
         xlink:href="#text4484" />
      <use
         transform="translate(63.394848,-12.444795)"
         id="use5147"
         x="0"
         y="0"
         width="744.09448"
         height="1052.3622"
         xlink:href="#text4484" />
      <use
         transform="translate(99.461212,-10.647577)"
         id="use5149"
         x="0"
         y="0"
         width="744.09448"
         height="1052.3622"
         xlink:href="#text4484" />
      <use
         transform="translate(89.071852,-39.491739)"
         id="use5151"
         x="0"
         y="0"
         width="744.09448"
         height="1052.3622"
         xlink:href="#text4484" />
      <use
         transform="translate(67.535812,-15.946591)"
         id="use5153"
         x="0"
         y="0"
         width="744.09448"
         height="1052.3622"
         xlink:href="#text4484" />
      <use
         transform="translate(100.01069,-13.145345)"
         id="use5155"
         x="0"
         y="0"
         width="744.09448"
         height="1052.3622"
         xlink:href="#text4484" />
      <use
         transform="translate(87.750284,-17.531121)"
         id="use5157"
         x="0"
         y="0"
         width="744.09448"
         height="1052.3622"
         xlink:href="#text4484" />
      <use
         transform="translate(68.688176,1.8181458)"
         id="use5159"
         x="0"
         y="0"
         width="744.09448"
         height="1052.3622"
         xlink:href="#text4484" />
      <use
         transform="translate(78.152026,-15.503144)"
         id="use5161"
         x="0"
         y="0"
         width="744.09448"
         height="1052.3622"
         xlink:href="#text4484" />
      <use
         transform="translate(94.415277,-3.9092037)"
         id="use5163"
         x="0"
         y="0"
         width="744.09448"
         height="1052.3622"
         xlink:href="#text4484" />
      <use
         transform="translate(82.351772,12.621979)"
         id="use5165"
         x="0"
         y="0"
         width="744.09448"
         height="1052.3622"
         xlink:href="#text4484" />
      <use
         transform="translate(78.603915,9.9119536)"
         id="use5167"
         x="0"
         y="0"
         width="744.09448"
         height="1052.3622"
         xlink:href="#text4484" />
      <use
         transform="translate(103.67742,1.6827267)"
         id="use5169"
         x="0"
         y="0"
         width="744.09448"
         height="1052.3622"
         xlink:href="#text4484" />
      <use
         transform="translate(81.356114,6.604697)"
         id="use5171"
         x="0"
         y="0"
         width="744.09448"
         height="1052.3622"
         xlink:href="#text4484" />
      <use
         transform="translate(98.326573,10.163376)"
         id="use5173"
         x="0"
         y="0"
         width="744.09448"
         height="1052.3622"
         xlink:href="#text4484" />
      <use
         transform="translate(66.574586,34.988305)"
         id="use5175"
         x="0"
         y="0"
         width="744.09448"
         height="1052.3622"
         xlink:href="#text4484" />
      <use
         transform="translate(78.495231,11.290834)"
         id="use5177"
         x="0"
         y="0"
         width="744.09448"
         height="1052.3622"
         xlink:href="#text4484" />
      <use
         transform="translate(82.478829,21.90402)"
         id="use5179"
         x="0"
         y="0"
         width="744.09448"
         height="1052.3622"
         xlink:href="#text4484" />
      <use
         transform="translate(66.671828,8.8177297)"
         id="use5181"
         x="0"
         y="0"
         width="744.09448"
         height="1052.3622"
         xlink:href="#text4484" />
      <use
         transform="translate(51.238899,27.229886)"
         id="use5183"
         x="0"
         y="0"
         width="744.09448"
         height="1052.3622"
         xlink:href="#text4484" />
      <use
         transform="translate(61.606815,39.216596)"
         id="use5185"
         x="0"
         y="0"
         width="744.09448"
         height="1052.3622"
         xlink:href="#text4484" />
      <use
         transform="translate(43.622473,42.085154)"
         id="use5187"
         x="0"
         y="0"
         width="744.09448"
         height="1052.3622"
         xlink:href="#text4484" />
      <use
         transform="translate(44.563483,32.589146)"
         id="use5189"
         x="0"
         y="0"
         width="744.09448"
         height="1052.3622"
         xlink:href="#text4484" />
      <use
         transform="translate(47.906479,14.224136)"
         id="use5191"
         x="0"
         y="0"
         width="744.09448"
         height="1052.3622"
         xlink:href="#text4484" />
      <use
         transform="translate(43.571656,27.907373)"
         id="use5193"
         x="0"
         y="0"
         width="744.09448"
         height="1052.3622"
         xlink:href="#text4484" />
      <use
         transform="translate(24.309251,38.208256)"
         id="use5195"
         x="0"
         y="0"
         width="744.09448"
         height="1052.3622"
         xlink:href="#text4484" />
      <use
         transform="translate(63.233239,19.841666)"
         id="use5197"
         x="0"
         y="0"
         width="744.09448"
         height="1052.3622"
         xlink:href="#text4484" />
      <use
         transform="translate(41.622558,16.83592)"
         id="use5199"
         x="0"
         y="0"
         width="744.09448"
         height="1052.3622"
         xlink:href="#text4484" />
      <use
         transform="translate(43.854243,31.888745)"
         id="use5201"
         x="0"
         y="0"
         width="744.09448"
         height="1052.3622"
         xlink:href="#text4484" />
      <use
         transform="translate(50.35395,3.8734669)"
         id="use5203"
         x="0"
         y="0"
         width="744.09448"
         height="1052.3622"
         xlink:href="#text4484" />
      <use
         transform="translate(45.564288,14.701009)"
         id="use5205"
         x="0"
         y="0"
         width="744.09448"
         height="1052.3622"
         xlink:href="#text4484" />
      <use
         transform="translate(51.59332,20.290178)"
         id="use5207"
         x="0"
         y="0"
         width="744.09448"
         height="1052.3622"
         xlink:href="#text4484" />
      <use
         transform="translate(52.653874,25.028273)"
         id="use5209"
         x="0"
         y="0"
         width="744.09448"
         height="1052.3622"
         xlink:href="#text4484" />
      <use
         transform="translate(50.578317,13.096602)"
         id="use5211"
         x="0"
         y="0"
         width="744.09448"
         height="1052.3622"
         xlink:href="#text4484" />
      <use
         transform="translate(78.727116,34.356273)"
         id="use5213"
         x="0"
         y="0"
         width="744.09448"
         height="1052.3622"
         xlink:href="#text4484" />
      <use
         transform="translate(92.074149,39.460136)"
         id="use5215"
         x="0"
         y="0"
         width="744.09448"
         height="1052.3622"
         xlink:href="#text4484" />
      <use
         transform="translate(73.633796,47.120057)"
         id="use5217"
         x="0"
         y="0"
         width="744.09448"
         height="1052.3622"
         xlink:href="#text4484" />
      <use
         transform="translate(133.21735,72.148309)"
         id="use5219"
         x="0"
         y="0"
         width="744.09448"
         height="1052.3622"
         xlink:href="#text4484" />
      <use
         transform="translate(103.88794,77.063842)"
         id="use5221"
         x="0"
         y="0"
         width="744.09448"
         height="1052.3622"
         xlink:href="#text4484" />
      <use
         transform="translate(130.71175,73.154288)"
         id="use5223"
         x="0"
         y="0"
         width="744.09448"
         height="1052.3622"
         xlink:href="#text4484" />
      <use
         transform="translate(141.22142,88.464512)"
         id="use5225"
         x="0"
         y="0"
         width="744.09448"
         height="1052.3622"
         xlink:href="#text4484" />
      <use
         transform="translate(132.46462,76.35318)"
         id="use5227"
         x="0"
         y="0"
         width="744.09448"
         height="1052.3622"
         xlink:href="#text4484" />
      <use
         transform="translate(111.78784,74.084157)"
         id="use5229"
         x="0"
         y="0"
         width="744.09448"
         height="1052.3622"
         xlink:href="#text4484" />
      <use
         transform="translate(120.00161,72.12412)"
         id="use5231"
         x="0"
         y="0"
         width="744.09448"
         height="1052.3622"
         xlink:href="#text4484" />
      <use
         transform="translate(115.64322,92.33035)"
         id="use5233"
         x="0"
         y="0"
         width="744.09448"
         height="1052.3622"
         xlink:href="#text4484" />
      <use
         transform="translate(67.830328,89.634206)"
         id="use5235"
         x="0"
         y="0"
         width="744.09448"
         height="1052.3622"
         xlink:href="#text4484" />
      <use
         transform="translate(76.086137,71.62903)"
         id="use5237"
         x="0"
         y="0"
         width="744.09448"
         height="1052.3622"
         xlink:href="#text4484" />
      <use
         transform="translate(37.182369,83.841)"
         id="use5239"
         x="0"
         y="0"
         width="744.09448"
         height="1052.3622"
         xlink:href="#text4484" />
      <use
         transform="translate(39.87088,101.07272)"
         id="use5241"
         x="0"
         y="0"
         width="744.09448"
         height="1052.3622"
         xlink:href="#text4484" />
      <use
         transform="translate(65.326857,98.312692)"
         id="use5243"
         x="0"
         y="0"
         width="744.09448"
         height="1052.3622"
         xlink:href="#text4484" />
      <use
         transform="translate(65.653146,78.742757)"
         id="use5245"
         x="0"
         y="0"
         width="744.09448"
         height="1052.3622"
         xlink:href="#text4484" />
      <use
         transform="translate(70.20315,86.529458)"
         id="use5247"
         x="0"
         y="0"
         width="744.09448"
         height="1052.3622"
         xlink:href="#text4484" />
      <use
         transform="translate(41.682739,64.776294)"
         id="use5249"
         x="0"
         y="0"
         width="744.09448"
         height="1052.3622"
         xlink:href="#text4484" />
      <use
         transform="translate(51.891783,102.87206)"
         id="use5251"
         x="0"
         y="0"
         width="744.09448"
         height="1052.3622"
         xlink:href="#text4484" />
      <use
         transform="translate(36.034881,79.614193)"
         id="use5253"
         x="0"
         y="0"
         width="744.09448"
         height="1052.3622"
         xlink:href="#text4484" />
      <use
         transform="translate(19.676807,79.388053)"
         id="use5255"
         x="0"
         y="0"
         width="744.09448"
         height="1052.3622"
         xlink:href="#text4484" />
      <use
         transform="translate(1.2699586,104.32171)"
         id="use5257"
         x="0"
         y="0"
         width="744.09448"
         height="1052.3622"
         xlink:href="#text4484" />
      <use
         transform="translate(11.473146,99.905474)"
         id="use5259"
         x="0"
         y="0"
         width="744.09448"
         height="1052.3622"
         xlink:href="#text4484" />
      <use
         transform="translate(-7.3471472,106.18533)"
         id="use5261"
         x="0"
         y="0"
         width="744.09448"
         height="1052.3622"
         xlink:href="#text4484" />
      <use
         transform="translate(6.7864822,93.719848)"
         id="use5263"
         x="0"
         y="0"
         width="744.09448"
         height="1052.3622"
         xlink:href="#text4484" />
      <use
         transform="translate(30.079985,97.360348)"
         id="use5265"
         x="0"
         y="0"
         width="744.09448"
         height="1052.3622"
         xlink:href="#text4484" />
      <use
         transform="translate(23.602803,111.23188)"
         id="use5267"
         x="0"
         y="0"
         width="744.09448"
         height="1052.3622"
         xlink:href="#text4484" />
      <use
         transform="translate(12.856918,107.83698)"
         id="use5269"
         x="0"
         y="0"
         width="744.09448"
         height="1052.3622"
         xlink:href="#text4484" />
      <use
         transform="translate(32.088966,84.890875)"
         id="use5271"
         x="0"
         y="0"
         width="744.09448"
         height="1052.3622"
         xlink:href="#text4484" />
      <use
         transform="translate(20.3733,101.82175)"
         id="use5273"
         x="0"
         y="0"
         width="744.09448"
         height="1052.3622"
         xlink:href="#text4484" />
      <use
         transform="translate(36.87645,85.060988)"
         id="use5275"
         x="0"
         y="0"
         width="744.09448"
         height="1052.3622"
         xlink:href="#text4484" />
      <use
         transform="translate(60.418576,49.865483)"
         id="use5277"
         x="0"
         y="0"
         width="744.09448"
         height="1052.3622"
         xlink:href="#text4484" />
      <use
         transform="translate(63.040333,60.011217)"
         id="use5279"
         x="0"
         y="0"
         width="744.09448"
         height="1052.3622"
         xlink:href="#text4484" />
      <use
         transform="translate(58.868583,76.259461)"
         id="use5281"
         x="0"
         y="0"
         width="744.09448"
         height="1052.3622"
         xlink:href="#text4484" />
      <use
         transform="translate(101.40305,72.813612)"
         id="use5283"
         x="0"
         y="0"
         width="744.09448"
         height="1052.3622"
         xlink:href="#text4484" />
      <use
         transform="translate(78.212577,55.243462)"
         id="use5285"
         x="0"
         y="0"
         width="744.09448"
         height="1052.3622"
         xlink:href="#text4484" />
      <use
         transform="translate(55.827018,80.4628)"
         id="use5287"
         x="0"
         y="0"
         width="744.09448"
         height="1052.3622"
         xlink:href="#text4484" />
      <use
         transform="translate(74.124015,71.889432)"
         id="use5289"
         x="0"
         y="0"
         width="744.09448"
         height="1052.3622"
         xlink:href="#text4484" />
      <use
         transform="translate(72.075037,111.47007)"
         id="use5291"
         x="0"
         y="0"
         width="744.09448"
         height="1052.3622"
         xlink:href="#text4484" />
      <use
         transform="translate(70.102894,95.2652)"
         id="use5293"
         x="0"
         y="0"
         width="744.09448"
         height="1052.3622"
         xlink:href="#text4484" />
      <use
         transform="translate(46.349677,114.17106)"
         id="use5295"
         x="0"
         y="0"
         width="744.09448"
         height="1052.3622"
         xlink:href="#text4484" />
      <use
         transform="translate(41.272376,126.23113)"
         id="use5297"
         x="0"
         y="0"
         width="744.09448"
         height="1052.3622"
         xlink:href="#text4484" />
      <use
         transform="translate(13.31613,146.33525)"
         id="use5299"
         x="0"
         y="0"
         width="744.09448"
         height="1052.3622"
         xlink:href="#text4484" />
      <use
         transform="translate(9.5095011,166.00249)"
         id="use5301"
         x="0"
         y="0"
         width="744.09448"
         height="1052.3622"
         xlink:href="#text4484" />
      <use
         transform="translate(28.27334,164.82906)"
         id="use5303"
         x="0"
         y="0"
         width="744.09448"
         height="1052.3622"
         xlink:href="#text4484" />
      <use
         transform="translate(12.832871,151.04575)"
         id="use5305"
         x="0"
         y="0"
         width="744.09448"
         height="1052.3622"
         xlink:href="#text4484" />
      <use
         transform="translate(3.4732802,135.29782)"
         id="use5307"
         x="0"
         y="0"
         width="744.09448"
         height="1052.3622"
         xlink:href="#text4484" />
      <use
         transform="translate(10.235194,132.82744)"
         id="use5309"
         x="0"
         y="0"
         width="744.09448"
         height="1052.3622"
         xlink:href="#text4484" />
      <use
         transform="translate(7.863035,131.25105)"
         id="use5311"
         x="0"
         y="0"
         width="744.09448"
         height="1052.3622"
         xlink:href="#text4484" />
      <use
         transform="translate(-1.2306772,125.43172)"
         id="use5313"
         x="0"
         y="0"
         width="744.09448"
         height="1052.3622"
         xlink:href="#text4484" />
      <use
         transform="translate(-7.6468566,92.142039)"
         id="use5315"
         x="0"
         y="0"
         width="744.09448"
         height="1052.3622"
         xlink:href="#text4484" />
      <use
         transform="translate(-23.318112,127.85072)"
         id="use5317"
         x="0"
         y="0"
         width="744.09448"
         height="1052.3622"
         xlink:href="#text4484" />
      <use
         transform="translate(-33.351323,112.20576)"
         id="use5319"
         x="0"
         y="0"
         width="744.09448"
         height="1052.3622"
         xlink:href="#text4484" />
      <use
         transform="translate(-23.972045,106.62773)"
         id="use5321"
         x="0"
         y="0"
         width="744.09448"
         height="1052.3622"
         xlink:href="#text4484" />
      <use
         transform="translate(-7.9847516,76.803658)"
         id="use5323"
         x="0"
         y="0"
         width="744.09448"
         height="1052.3622"
         xlink:href="#text4484" />
      <use
         transform="translate(-31.059275,78.876141)"
         id="use5325"
         x="0"
         y="0"
         width="744.09448"
         height="1052.3622"
         xlink:href="#text4484" />
      <use
         transform="translate(-2.8026485,98.215428)"
         id="use5327"
         x="0"
         y="0"
         width="744.09448"
         height="1052.3622"
         xlink:href="#text4484" />
      <use
         transform="translate(-30.115648,111.01085)"
         id="use5329"
         x="0"
         y="0"
         width="744.09448"
         height="1052.3622"
         xlink:href="#text4484" />
      <use
         transform="translate(-6.7477273,110.10217)"
         id="use5331"
         x="0"
         y="0"
         width="744.09448"
         height="1052.3622"
         xlink:href="#text4484" />
      <use
         transform="translate(8.8886849,71.367433)"
         id="use5333"
         x="0"
         y="0"
         width="744.09448"
         height="1052.3622"
         xlink:href="#text4484" />
      <use
         transform="translate(-7.9247808,84.046552)"
         id="use5335"
         x="0"
         y="0"
         width="744.09448"
         height="1052.3622"
         xlink:href="#text4484" />
      <use
         transform="translate(2.826983,92.475717)"
         id="use5337"
         x="0"
         y="0"
         width="744.09448"
         height="1052.3622"
         xlink:href="#text4484" />
      <use
         transform="translate(-9.9514841,88.84767)"
         id="use5339"
         x="0"
         y="0"
         width="744.09448"
         height="1052.3622"
         xlink:href="#text4484" />
      <use
         transform="translate(-39.950913,58.33321)"
         id="use5341"
         x="0"
         y="0"
         width="744.09448"
         height="1052.3622"
         xlink:href="#text4484" />
      <use
         transform="translate(-34.986875,52.850923)"
         id="use5343"
         x="0"
         y="0"
         width="744.09448"
         height="1052.3622"
         xlink:href="#text4484" />
      <use
         transform="translate(-57.480938,72.508795)"
         id="use5345"
         x="0"
         y="0"
         width="744.09448"
         height="1052.3622"
         xlink:href="#text4484" />
      <use
         transform="translate(-36.15985,67.848103)"
         id="use5347"
         x="0"
         y="0"
         width="744.09448"
         height="1052.3622"
         xlink:href="#text4484" />
      <use
         transform="translate(-43.898825,57.04442)"
         id="use5349"
         x="0"
         y="0"
         width="744.09448"
         height="1052.3622"
         xlink:href="#text4484" />
      <use
         transform="translate(-77.181542,70.718633)"
         id="use5351"
         x="0"
         y="0"
         width="744.09448"
         height="1052.3622"
         xlink:href="#text4484" />
      <use
         transform="translate(-58.051418,52.011225)"
         id="use5353"
         x="0"
         y="0"
         width="744.09448"
         height="1052.3622"
         xlink:href="#text4484" />
      <use
         transform="translate(-77.82021,56.429362)"
         id="use5355"
         x="0"
         y="0"
         width="744.09448"
         height="1052.3622"
         xlink:href="#text4484" />
      <use
         transform="translate(-36.452792,53.464958)"
         id="use5357"
         x="0"
         y="0"
         width="744.09448"
         height="1052.3622"
         xlink:href="#text4484" />
      <use
         transform="translate(-56.843295,57.770379)"
         id="use5359"
         x="0"
         y="0"
         width="744.09448"
         height="1052.3622"
         xlink:href="#text4484" />
      <use
         transform="translate(-38.751379,51.306575)"
         id="use5361"
         x="0"
         y="0"
         width="744.09448"
         height="1052.3622"
         xlink:href="#text4484" />
      <use
         transform="translate(-46.340269,50.221144)"
         id="use5363"
         x="0"
         y="0"
         width="744.09448"
         height="1052.3622"
         xlink:href="#text4484" />
      <use
         transform="translate(-27.702148,59.001657)"
         id="use5365"
         x="0"
         y="0"
         width="744.09448"
         height="1052.3622"
         xlink:href="#text4484" />
      <use
         transform="translate(-8.1162979,44.216352)"
         id="use5367"
         x="0"
         y="0"
         width="744.09448"
         height="1052.3622"
         xlink:href="#text4484" />
      <use
         transform="translate(-2.0854901,44.128351)"
         id="use5369"
         x="0"
         y="0"
         width="744.09448"
         height="1052.3622"
         xlink:href="#text4484" />
      <use
         transform="translate(2.3697101,47.658408)"
         id="use5371"
         x="0"
         y="0"
         width="744.09448"
         height="1052.3622"
         xlink:href="#text4484" />
      <use
         transform="translate(-19.325191,47.281814)"
         id="use5373"
         x="0"
         y="0"
         width="744.09448"
         height="1052.3622"
         xlink:href="#text4484" />
      <use
         transform="translate(-12.690926,43.760794)"
         id="use5375"
         x="0"
         y="0"
         width="744.09448"
         height="1052.3622"
         xlink:href="#text4484" />
      <use
         transform="translate(-4.83002,55.175795)"
         id="use5377"
         x="0"
         y="0"
         width="744.09448"
         height="1052.3622"
         xlink:href="#text4484" />
      <use
         transform="translate(-2.4813451,49.111112)"
         id="use5379"
         x="0"
         y="0"
         width="744.09448"
         height="1052.3622"
         xlink:href="#text4484" />
      <use
         transform="translate(-15.162076,42.102666)"
         id="use5381"
         x="0"
         y="0"
         width="744.09448"
         height="1052.3622"
         xlink:href="#text4484" />
      <use
         transform="translate(-19.195592,61.087788)"
         id="use5383"
         x="0"
         y="0"
         width="744.09448"
         height="1052.3622"
         xlink:href="#text4484" />
      <use
         transform="translate(-18.408597,82.806194)"
         id="use5385"
         x="0"
         y="0"
         width="744.09448"
         height="1052.3622"
         xlink:href="#text4484" />
      <use
         transform="translate(2.1132486,68.865661)"
         id="use5387"
         x="0"
         y="0"
         width="744.09448"
         height="1052.3622"
         xlink:href="#text4484" />
      <use
         transform="translate(-17.087142,48.48776)"
         id="use5389"
         x="0"
         y="0"
         width="744.09448"
         height="1052.3622"
         xlink:href="#text4484" />
      <use
         transform="translate(-26.945558,54.927467)"
         id="use5391"
         x="0"
         y="0"
         width="744.09448"
         height="1052.3622"
         xlink:href="#text4484" />
      <use
         transform="translate(-19.979393,51.652733)"
         id="use5393"
         x="0"
         y="0"
         width="744.09448"
         height="1052.3622"
         xlink:href="#text4484" />
      <use
         transform="translate(-34.16984,32.10432)"
         id="use5395"
         x="0"
         y="0"
         width="744.09448"
         height="1052.3622"
         xlink:href="#text4484" />
      <use
         transform="translate(-33.18392,32.474562)"
         id="use5397"
         x="0"
         y="0"
         width="744.09448"
         height="1052.3622"
         xlink:href="#text4484" />
      <use
         transform="translate(-29.175839,24.157562)"
         id="use5399"
         x="0"
         y="0"
         width="744.09448"
         height="1052.3622"
         xlink:href="#text4484" />
      <use
         transform="translate(-4.5898397,9.2791776)"
         id="use5401"
         x="0"
         y="0"
         width="744.09448"
         height="1052.3622"
         xlink:href="#text4484" />
      <use
         transform="translate(-24.058627,-3.2663257)"
         id="use5403"
         x="0"
         y="0"
         width="744.09448"
         height="1052.3622"
         xlink:href="#text4484" />
      <use
         transform="translate(-14.649013,11.748934)"
         id="use5405"
         x="0"
         y="0"
         width="744.09448"
         height="1052.3622"
         xlink:href="#text4484" />
      <use
         transform="translate(-13.662732,-12.932175)"
         id="use5407"
         x="0"
         y="0"
         width="744.09448"
         height="1052.3622"
         xlink:href="#text4484" />
      <use
         transform="translate(-24.028433,4.9901104)"
         id="use5409"
         x="0"
         y="0"
         width="744.09448"
         height="1052.3622"
         xlink:href="#text4484" />
      <use
         transform="translate(1.0086593,-5.2529233)"
         id="use5411"
         x="0"
         y="0"
         width="744.09448"
         height="1052.3622"
         xlink:href="#text4484" />
      <use
         transform="translate(-7.6919465,-20.75591)"
         id="use5413"
         x="0"
         y="0"
         width="744.09448"
         height="1052.3622"
         xlink:href="#text4484" />
      <use
         transform="translate(-4.505147,-32.175614)"
         id="use5415"
         x="0"
         y="0"
         width="744.09448"
         height="1052.3622"
         xlink:href="#text4484" />
      <use
         transform="translate(0.4134451,-5.4168066)"
         id="use5417"
         x="0"
         y="0"
         width="744.09448"
         height="1052.3622"
         xlink:href="#text4484" />
      <use
         transform="translate(8.3660404,-20.721708)"
         id="use5419"
         x="0"
         y="0"
         width="744.09448"
         height="1052.3622"
         xlink:href="#text4484" />
      <use
         transform="translate(-0.47970713,-33.941338)"
         id="use5421"
         x="0"
         y="0"
         width="744.09448"
         height="1052.3622"
         xlink:href="#text4484" />
      <use
         transform="translate(16.494473,-20.375449)"
         id="use5423"
         x="0"
         y="0"
         width="744.09448"
         height="1052.3622"
         xlink:href="#text4484" />
      <use
         transform="translate(12.683069,-10.144914)"
         id="use5425"
         x="0"
         y="0"
         width="744.09448"
         height="1052.3622"
         xlink:href="#text4484" />
      <use
         transform="translate(-2.1757178,-32.900207)"
         id="use5427"
         x="0"
         y="0"
         width="744.09448"
         height="1052.3622"
         xlink:href="#text4484" />
      <use
         transform="translate(7.1437994,-26.35336)"
         id="use5429"
         x="0"
         y="0"
         width="744.09448"
         height="1052.3622"
         xlink:href="#text4484" />
      <use
         transform="translate(15.345588,-19.246479)"
         id="use5431"
         x="0"
         y="0"
         width="744.09448"
         height="1052.3622"
         xlink:href="#text4484" />
      <use
         transform="translate(21.906603,-14.696232)"
         id="use5433"
         x="0"
         y="0"
         width="744.09448"
         height="1052.3622"
         xlink:href="#text4484" />
      <use
         transform="translate(12.081413,-6.8610413)"
         id="use5435"
         x="0"
         y="0"
         width="744.09448"
         height="1052.3622"
         xlink:href="#text4484" />
      <use
         transform="translate(-14.12751,-28.083757)"
         id="use5437"
         x="0"
         y="0"
         width="744.09448"
         height="1052.3622"
         xlink:href="#text4484" />
      <use
         transform="translate(13.831714,-18.660878)"
         id="use5439"
         x="0"
         y="0"
         width="744.09448"
         height="1052.3622"
         xlink:href="#text4484" />
      <use
         transform="translate(14.01765,-12.739367)"
         id="use5441"
         x="0"
         y="0"
         width="744.09448"
         height="1052.3622"
         xlink:href="#text4484" />
      <use
         transform="translate(34.115167,18.128463)"
         id="use5443"
         x="0"
         y="0"
         width="744.09448"
         height="1052.3622"
         xlink:href="#text4484" />
      <use
         transform="translate(44.058394,2.6605551)"
         id="use5445"
         x="0"
         y="0"
         width="744.09448"
         height="1052.3622"
         xlink:href="#text4484" />
      <use
         transform="translate(83.898368,10.081899)"
         id="use5447"
         x="0"
         y="0"
         width="744.09448"
         height="1052.3622"
         xlink:href="#text4484" />
      <use
         transform="translate(48.604799,14.190856)"
         id="use5449"
         x="0"
         y="0"
         width="744.09448"
         height="1052.3622"
         xlink:href="#text4484" />
      <use
         transform="translate(68.017647,26.192028)"
         id="use5451"
         x="0"
         y="0"
         width="744.09448"
         height="1052.3622"
         xlink:href="#text4484" />
      <use
         transform="translate(25.370289,22.324776)"
         id="use5453"
         x="0"
         y="0"
         width="744.09448"
         height="1052.3622"
         xlink:href="#text4484" />
      <use
         transform="translate(38.246418,34.583032)"
         id="use5455"
         x="0"
         y="0"
         width="744.09448"
         height="1052.3622"
         xlink:href="#text4484" />
      <use
         transform="translate(13.595582,56.799451)"
         id="use5457"
         x="0"
         y="0"
         width="744.09448"
         height="1052.3622"
         xlink:href="#text4484" />
      <use
         transform="translate(-3.242233,42.95394)"
         id="use5459"
         x="0"
         y="0"
         width="744.09448"
         height="1052.3622"
         xlink:href="#text4484" />
      <use
         transform="translate(-2.5429517,32.615331)"
         id="use5461"
         x="0"
         y="0"
         width="744.09448"
         height="1052.3622"
         xlink:href="#text4484" />
      <use
         transform="translate(-42.946169,66.112714)"
         id="use5463"
         x="0"
         y="0"
         width="744.09448"
         height="1052.3622"
         xlink:href="#text4484" />
      <use
         transform="translate(-49.330247,46.097615)"
         id="use5465"
         x="0"
         y="0"
         width="744.09448"
         height="1052.3622"
         xlink:href="#text4484" />
      <use
         transform="translate(-28.843287,65.586353)"
         id="use5467"
         x="0"
         y="0"
         width="744.09448"
         height="1052.3622"
         xlink:href="#text4484" />
      <use
         transform="translate(-65.813472,64.574985)"
         id="use5469"
         x="0"
         y="0"
         width="744.09448"
         height="1052.3622"
         xlink:href="#text4484" />
      <use
         transform="translate(-66.75539,48.522141)"
         id="use5471"
         x="0"
         y="0"
         width="744.09448"
         height="1052.3622"
         xlink:href="#text4484" />
      <use
         transform="translate(-48.857684,32.690013)"
         id="use5473"
         x="0"
         y="0"
         width="744.09448"
         height="1052.3622"
         xlink:href="#text4484" />
      <use
         transform="translate(-63.928778,32.813751)"
         id="use5475"
         x="0"
         y="0"
         width="744.09448"
         height="1052.3622"
         xlink:href="#text4484" />
      <use
         transform="translate(-37.546928,46.629352)"
         id="use5477"
         x="0"
         y="0"
         width="744.09448"
         height="1052.3622"
         xlink:href="#text4484" />
      <use
         transform="translate(-33.457355,32.989629)"
         id="use5479"
         x="0"
         y="0"
         width="744.09448"
         height="1052.3622"
         xlink:href="#text4484" />
      <use
         transform="translate(16.811984,7.5922615)"
         id="use5481"
         x="0"
         y="0"
         width="744.09448"
         height="1052.3622"
         xlink:href="#text4484" />
      <use
         transform="translate(35.979062,29.180763)"
         id="use5483"
         x="0"
         y="0"
         width="744.09448"
         height="1052.3622"
         xlink:href="#text4484" />
      <use
         transform="translate(81.319215,31.686075)"
         id="use5485"
         x="0"
         y="0"
         width="744.09448"
         height="1052.3622"
         xlink:href="#text4484" />
      <use
         transform="translate(77.284116,39.863285)"
         id="use5487"
         x="0"
         y="0"
         width="744.09448"
         height="1052.3622"
         xlink:href="#text4484" />
      <use
         transform="translate(82.607415,24.650411)"
         id="use5489"
         x="0"
         y="0"
         width="744.09448"
         height="1052.3622"
         xlink:href="#text4484" />
      <use
         transform="translate(80.580398,33.017697)"
         id="use5491"
         x="0"
         y="0"
         width="744.09448"
         height="1052.3622"
         xlink:href="#text4484" />
      <use
         transform="translate(82.259575,47.088339)"
         id="use5493"
         x="0"
         y="0"
         width="744.09448"
         height="1052.3622"
         xlink:href="#text4484" />
      <use
         transform="translate(60.891446,50.678171)"
         id="use5495"
         x="0"
         y="0"
         width="744.09448"
         height="1052.3622"
         xlink:href="#text4484" />
      <use
         transform="translate(61.892466,64.366677)"
         id="use5497"
         x="0"
         y="0"
         width="744.09448"
         height="1052.3622"
         xlink:href="#text4484" />
      <use
         transform="translate(100.44662,91.748543)"
         id="use5499"
         x="0"
         y="0"
         width="744.09448"
         height="1052.3622"
         xlink:href="#text4484" />
      <use
         transform="translate(103.77053,95.781678)"
         id="use5501"
         x="0"
         y="0"
         width="744.09448"
         height="1052.3622"
         xlink:href="#text4484" />
      <use
         transform="translate(70.601647,101.79631)"
         id="use5503"
         x="0"
         y="0"
         width="744.09448"
         height="1052.3622"
         xlink:href="#text4484" />
      <use
         transform="translate(91.986929,82.62951)"
         id="use5505"
         x="0"
         y="0"
         width="744.09448"
         height="1052.3622"
         xlink:href="#text4484" />
      <use
         transform="translate(93.183812,45.246298)"
         id="use5507"
         x="0"
         y="0"
         width="744.09448"
         height="1052.3622"
         xlink:href="#text4484" />
      <use
         transform="translate(122.66269,38.466561)"
         id="use5509"
         x="0"
         y="0"
         width="744.09448"
         height="1052.3622"
         xlink:href="#text4484" />
      <use
         transform="translate(128.55729,27.365162)"
         id="use5511"
         x="0"
         y="0"
         width="744.09448"
         height="1052.3622"
         xlink:href="#text4484" />
      <use
         transform="translate(134.82345,21.371021)"
         id="use5513"
         x="0"
         y="0"
         width="744.09448"
         height="1052.3622"
         xlink:href="#text4484" />
      <use
         transform="translate(131.58108,29.316733)"
         id="use5515"
         x="0"
         y="0"
         width="744.09448"
         height="1052.3622"
         xlink:href="#text4484" />
      <use
         transform="translate(137.0083,20.369766)"
         id="use5517"
         x="0"
         y="0"
         width="744.09448"
         height="1052.3622"
         xlink:href="#text4484" />
      <use
         transform="translate(141.44983,41.047881)"
         id="use5519"
         x="0"
         y="0"
         width="744.09448"
         height="1052.3622"
         xlink:href="#text4484" />
      <use
         transform="translate(132.6367,30.586768)"
         id="use5521"
         x="0"
         y="0"
         width="744.09448"
         height="1052.3622"
         xlink:href="#text4484" />
      <use
         transform="translate(145.93813,24.561575)"
         id="use5523"
         x="0"
         y="0"
         width="744.09448"
         height="1052.3622"
         xlink:href="#text4484" />
      <use
         transform="translate(144.17323,25.069578)"
         id="use5525"
         x="0"
         y="0"
         width="744.09448"
         height="1052.3622"
         xlink:href="#text4484" />
    </g>
    <path
       d="M 53.404647,1046.3001 C 24.196792,1041.0225 3.5232706,1014.8152 5.0541356,985.00746 7.0610638,945.93031 46.146234,919.50538 83.098966,932.24245 c 32.173474,11.08971 48.419174,47.06689 35.452384,78.51165 -7.64082,18.5291 -24.685102,32.1096 -44.674541,35.5955 -8.015701,1.3978 -12.523025,1.3869 -20.472162,-0.05 l 0,0 z m 17.636076,-48.12494 c 3.191483,-2.37878 4.911453,-5.92994 4.911453,-10.14047 0,-4.88185 -2.266117,-8.56282 -6.54743,-10.63538 -4.11831,-1.99364 -6.783472,-1.99364 -10.901796,0 -9.070559,4.39099 -8.753298,18.11922 0.508844,22.01807 2.920925,1.22952 9.644225,0.53524 12.028929,-1.24222 l 0,0 z"
       id="path4528"
       style="fill:#f0f000;fill-opacity:0.3148936;fill-rule:nonzero;stroke:#f00000;stroke-width:7.94881678;stroke-linecap:round;stroke-linejoin:round;stroke-miterlimit:4;stroke-opacity:1;stroke-dasharray:none;stroke-dashoffset:0" />
  </g>
</svg>
