<?xml version="1.0" encoding="UTF-8" standalone="no"?>
<!-- Created with Inkscape (http://www.inkscape.org/) -->

<svg
   xmlns:dc="http://purl.org/dc/elements/1.1/"
   xmlns:cc="http://creativecommons.org/ns#"
   xmlns:rdf="http://www.w3.org/1999/02/22-rdf-syntax-ns#"
   xmlns:svg="http://www.w3.org/2000/svg"
   xmlns="http://www.w3.org/2000/svg"
   version="1.1"
   width="128"
   height="128"
   id="svg3918">
  <defs
     id="defs3920">
    <clipPath
       id="clipPath5536">
      <path
         d="m 120.19935,864.8559 c -25.096213,-38.26411 -11.7232,-89.62529 28.85518,-110.82274 24.1328,-12.60658 54.48983,-11.02738 77.94337,4.05467 5.90292,3.79594 14.46846,11.7375 18.4322,17.08946 15.24007,20.57761 19.7772,46.17208 12.40014,69.9506 -9.01121,29.04592 -34.14583,50.13705 -63.70338,53.45521 -29.71878,3.33627 -58.11567,-9.61896 -73.92751,-33.7272 z m 56.06095,-21.09545 c 3.74373,1.91168 12.13539,1.71852 16.75547,-0.38569 5.75674,-2.6219 11.0409,-8.16794 12.99352,-13.63746 1.75814,-4.92483 1.66051,-9.77484 -0.31197,-15.4963 -1.98071,-5.74532 -7.14234,-10.99636 -12.88882,-13.11203 -5.49684,-2.02376 -10.53148,-2.08126 -15.89994,-0.18157 -3.97104,1.4052 -5.10285,2.13711 -8.38673,5.42351 -7.40311,7.40856 -9.25035,16.33694 -5.21665,25.21248 1.28717,2.83223 9.17611,10.24737 12.95512,12.17706 z"
         id="path5538"
         style="fill:#ffff00;fill-opacity:1;fill-rule:nonzero;stroke:#ff0000;stroke-width:6.67643023;stroke-linecap:round;stroke-linejoin:round;stroke-miterlimit:4;stroke-opacity:1;stroke-dasharray:none;stroke-dashoffset:0" />
    </clipPath>
  </defs>
  <metadata
     id="metadata3923">
    <rdf:RDF>
      <cc:Work
         rdf:about="">
        <dc:format>image/svg+xml</dc:format>
        <dc:type
           rdf:resource="http://purl.org/dc/dcmitype/StillImage" />
        <dc:title></dc:title>
      </cc:Work>
    </rdf:RDF>
  </metadata>
  <rect
     width="128.54338"
     height="127.77058"
     x="0"
     y="-0.028175214"
     id="rect4015"
     style="fill:#bb0000;fill-opacity:1;fill-rule:nonzero;stroke:none" />
  <text
     x="-6.182447"
     y="77.252411"
     id="text4011"
     xml:space="preserve"
     style="font-size:32px;font-style:normal;font-weight:normal;line-height:125%;letter-spacing:0px;word-spacing:0px;fill:#cccccc;fill-opacity:1;stroke:none;font-family:Teko Bold;-inkscape-font-specification:Teko Bold"><tspan
       x="-6.182447"
       y="77.252411"
       id="tspan4013"
       style="font-size:56px;font-style:normal;font-variant:normal;font-weight:normal;font-stretch:normal;fill:#ffffff;font-family:Rubik Mono One;-inkscape-font-specification:Rubik Mono One">[M]</tspan></text>
</svg>
